/* XPM */
static char * icon_xpm[] = {
"32 32 114 2",
"  	g #FFFFFF",
". 	g #FCFCFC",
"+ 	g #E7E7E7",
"@ 	g #E1E1E1",
"# 	g #E2E2E2",
"$ 	g #696969",
"% 	g #777777",
"& 	g #7B7B7B",
"* 	g #4E4E4E",
"= 	g #6E6E6E",
"- 	g #7D7D7D",
"; 	g #F3F3F3",
"> 	g #FAFAFA",
", 	g #F8F8F8",
"' 	g #F9F9F9",
") 	g #707070",
"! 	g #D0D0D0",
"~ 	g #FDFDFD",
"{ 	g #DEDEDE",
"] 	g #E0E0E0",
"^ 	g #747474",
"/ 	g #D6D6D6",
"( 	g #D8D8D8",
"_ 	g #B6B6B6",
": 	g #FEFEFE",
"< 	g #FBFBFB",
"[ 	g #ECECEC",
"} 	g #9B9B9B",
"| 	g #5E5E5E",
"1 	g #737373",
"2 	g #D7D7D7",
"3 	g #F0F0F0",
"4 	g #B8B8B8",
"5 	g #676767",
"6 	g #525252",
"7 	g #D5D5D5",
"8 	g #575757",
"9 	g #797979",
"0 	g #464646",
"a 	g #E5E5E5",
"b 	g #7C7C7C",
"c 	g #959595",
"d 	g #AFAFAF",
"e 	g #C3C3C3",
"f 	g #F6F6F6",
"g 	g #A7A7A7",
"h 	g #B1B1B1",
"i 	g #888888",
"j 	g #3D3D3D",
"k 	g #303030",
"l 	g #404040",
"m 	g #8E8E8E",
"n 	g #484848",
"o 	g #1D1D1D",
"p 	g #999999",
"q 	g #C4C4C4",
"r 	g #939393",
"s 	g #202020",
"t 	g #585858",
"u 	g #7A7A7A",
"v 	g #0C0C0C",
"w 	g #BBBBBB",
"x 	g #0D0D0D",
"y 	g #A3A3A3",
"z 	g #EDEDED",
"A 	g #474747",
"B 	g #333333",
"C 	g #CECECE",
"D 	g #171717",
"E 	g #818181",
"F 	g #030303",
"G 	g #C7C7C7",
"H 	g #121212",
"I 	g #BCBCBC",
"J 	g #8D8D8D",
"K 	g #000000",
"L 	g #A2A2A2",
"M 	g #717171",
"N 	g #0E0E0E",
"O 	g #494949",
"P 	g #313131",
"Q 	g #555555",
"R 	g #ABABAB",
"S 	g #060606",
"T 	g #808080",
"U 	g #D4D4D4",
"V 	g #929292",
"W 	g #050505",
"X 	g #2C2C2C",
"Y 	g #5C5C5C",
"Z 	g #2A2A2A",
"` 	g #0A0A0A",
" .	g #E8E8E8",
"..	g #2B2B2B",
"+.	g #606060",
"@.	g #EEEEEE",
"#.	g #3B3B3B",
"$.	g #989898",
"%.	g #E6E6E6",
"&.	g #757575",
"*.	g #B2B2B2",
"=.	g #D9D9D9",
"-.	g #F7F7F7",
";.	g #9A9A9A",
">.	g #848484",
",.	g #9C9C9C",
"'.	g #E9E9E9",
").	g #4F4F4F",
"!.	g #979797",
"~.	g #BABABA",
"{.	g #BDBDBD",
"].	g #A6A6A6",
"^.	g #DFDFDF",
"/.	g #8C8C8C",
"                                                                ",
"  . + @ # # # # # # # # # # # # # # # # # # # # # # # # # # # # ",
"  + $ % & & & & & & & & & & & & & & & & & & & & & & * = - & & & ",
"  @ % ; > . . , ' ' ' ' ' ' ' ' ' ' ' ' ' ' ' ' ' > ) ! ~ .   > ",
"  # & >   { ]                                       ^ /   ( _ : ",
"  # & < [ } |                                       1 2 3 4 _ 5 ",
"  # & '     6                                       1 7       8 ",
"  # & '     6   :                                   1 7   > 9 ( ",
"  # & ' ~ 2 0 a         :       : :                 1 /   b c 7 ",
"  # & ' < d } e     :       f       :               1 / ; d g h ",
"  # & '         : :   < i j k l m >                 1 7         ",
"  # & '         :   , n o p q r s t < :             1 7         ",
"  # & '         :   u v ] : :   w x y               1 7         ",
"  # & '           z k 1 ~ :       A B   :           1 7         ",
"  # & '           C D d :     :   E F               1 7         ",
"  # & '           G H I :         J K               1 7         ",
"  # & '           7 o L ~     :   M N               1 7         ",
"  # & '           ~ l O   : :     P Q   :           1 7         ",
"  # & '             R S r       T F U               1 7         ",
"  # & '           :   V W X Y Z ` d ~ :             1 7         ",
"  # & '           : :    .r M ..+.@.                1 7         ",
"  # & '               :       U #.$.<               1 7         ",
"  # & '                   :     %.! .               1 7         ",
"  # & '                     :                       1 7         ",
"  # & '                                             1 7         ",
"  # & >                                             ^ /         ",
"  # * ) ^ 1 1 1 1 1 1 1 1 1 1 1 1 1 1 1 1 1 1 1 1 ^ B +.&.1 1 1 ",
"  # = ! / / / 7 7 / / 7 7 7 7 7 7 7 7 7 7 7 7 7 7 / +.*.=.7 7 7 ",
"  # - ~     ~     , -.                              &.=.        ",
"  # & < 3 ;.>.  # ,.>.@ :                           1 7         ",
"  # & ' < '.).  q !.~.L .                           1 7         ",
"  # & '     6   {.].^./.<                           1 7         "};
